<svg width="26" height="26" viewBox="0 0 26 26" fill="none" xmlns="http://www.w3.org/2000/svg">
<mask id="mask0_11_12" style="mask-type:luminance" maskUnits="userSpaceOnUse" x="0" y="0" width="26" height="26">
<path d="M0 0H26V26H0V0Z" fill="white"/>
<path fill-rule="evenodd" clip-rule="evenodd" d="M18.5 7H6.5C6.23478 7 5.98043 7.10536 5.79289 7.29289C5.60536 7.48043 5.5 7.73478 5.5 8C5.5 12.918 8.561 17 12.5 17C16.439 17 19.5 12.918 19.5 8C19.5 7.73478 19.3946 7.48043 19.2071 7.29289C19.0196 7.10536 18.7652 7 18.5 7ZM12.5 15C10.045 15 7.904 12.43 7.551 9H17.449C17.096 12.43 14.955 15 12.5 15Z" fill="black"/>
<path d="M7 17.5H18C18.2652 17.5 18.5196 17.6054 18.7071 17.7929C18.8946 17.9804 19 18.2348 19 18.5C19 18.7652 18.8946 19.0196 18.7071 19.2071C18.5196 19.3946 18.2652 19.5 18 19.5H7C6.73478 19.5 6.48043 19.3946 6.29289 19.2071C6.10536 19.0196 6 18.7652 6 18.5C6 18.2348 6.10536 17.9804 6.29289 17.7929C6.48043 17.6054 6.73478 17.5 7 17.5ZM17.024 13.81L17.576 11.887C17.833 11.961 18.115 12 18.407 12C19.514 12 20.3 11.457 20.3 11C20.3 10.543 19.514 10 18.407 10V8C20.495 8 22.3 9.248 22.3 11C22.3 12.752 20.495 14 18.407 14C17.93 14 17.462 13.935 17.024 13.81Z" fill="black"/>
</mask>
<g mask="url(#mask0_11_12)">
<path d="M13 26C20.1797 26 26 20.1797 26 13C26 5.8203 20.1797 0 13 0C5.8203 0 0 5.8203 0 13C0 20.1797 5.8203 26 13 26Z" fill="black"/>
</g>
</svg>
