<svg width="28" height="28" viewBox="0 0 28 28" fill="none" xmlns="http://www.w3.org/2000/svg">
<path fill-rule="evenodd" clip-rule="evenodd" d="M21.1495 9.80151C23.5085 9.37851 25.0375 7.70301 24.9765 6.43351C24.8785 4.38401 23.399 3.35401 20.2095 3.34101H20.1685C19.9971 3.3413 19.8317 3.27827 19.704 3.16402C19.5763 3.04977 19.4952 2.89235 19.4765 2.72201C19.4675 2.6414 19.4751 2.5598 19.4987 2.4822C19.5223 2.40461 19.5615 2.33264 19.6139 2.27069C19.6662 2.20874 19.7307 2.15811 19.8032 2.12189C19.8758 2.08566 19.955 2.06461 20.036 2.06001L20.152 2.05301C21.101 1.99301 22.15 1.95801 22.716 2.09201C25.076 2.65151 26.386 4.07451 26.496 6.36051C26.5835 8.17851 25.231 9.95551 23.3275 11.3605L23.272 11.4005C23.6403 12.0452 23.8762 12.7655 23.9795 13.5615C24.3385 15.8655 24.0045 17.2985 24.2605 18.2475C24.517 19.197 25.6835 19.7175 26.144 20.778C26.6045 21.8385 26.519 22.303 26.384 23.138C26.3043 23.6333 26.1247 24.357 25.845 25.309C25.8141 25.4141 25.75 25.5063 25.6623 25.572C25.5746 25.6376 25.468 25.673 25.3585 25.673H23.673C23.393 25.673 23.166 25.446 23.166 25.166V24.911C23.166 24.844 23.1793 24.7776 23.2051 24.7157C23.2309 24.6538 23.2688 24.5977 23.3164 24.5506C23.3641 24.5034 23.4206 24.4662 23.4828 24.441C23.5449 24.4159 23.6115 24.4033 23.6785 24.404C23.9062 24.407 24.1002 24.347 24.2605 24.224C24.666 23.914 24.6995 23.741 24.6995 23.138C24.6995 22.736 24.5532 22.3315 24.2605 21.9245C23.0855 21.1605 22.103 20.5635 21.236 20.1245C21.1467 21.0055 20.9712 21.8065 20.7095 22.5275C20.4345 23.2855 19.9567 24.2498 19.276 25.4205C19.2316 25.4975 19.1676 25.5613 19.0907 25.6056C19.0137 25.65 18.9263 25.6732 18.8375 25.673H17.5035C17.2285 25.673 17.0035 25.454 16.997 25.179L16.991 24.949C16.9875 24.8164 17.036 24.6876 17.1263 24.5904C17.2166 24.4932 17.3415 24.4352 17.474 24.429L18.1715 24.396C18.3775 24.386 18.557 24.2525 18.6255 24.058C18.8565 23.402 18.9515 22.7573 18.9105 22.124C18.8638 21.4097 18.6262 20.4353 18.1975 19.201C16.4175 19.185 12.8065 19.9575 11.975 20.0265C11.779 20.0428 11.5777 20.0418 11.371 20.0235C11.2038 20.549 11.0992 21.0925 11.0595 21.6425C11.0082 22.3082 11.0035 23.4785 11.0455 25.1535C11.0472 25.2211 11.0353 25.2884 11.0106 25.3514C10.9858 25.4143 10.9487 25.4717 10.9015 25.5201C10.8542 25.5685 10.7978 25.607 10.7355 25.6333C10.6731 25.6595 10.6061 25.673 10.5385 25.673H9.153C8.873 25.673 8.646 25.446 8.646 25.166V24.818C8.646 24.538 8.873 24.311 9.153 24.311H9.3665C9.44565 24.311 9.52364 24.2919 9.59383 24.2553C9.66402 24.2187 9.72435 24.1657 9.7697 24.1009C9.81504 24.036 9.84407 23.9611 9.8543 23.8826C9.86454 23.8042 9.85569 23.7244 9.8285 23.65C9.56625 22.9396 9.36208 22.209 9.218 21.4655L7.552 25.3655C7.472 25.552 7.2885 25.673 7.0855 25.673H5.2455C4.9655 25.673 4.738 25.446 4.738 25.166V24.907C4.738 24.661 4.9145 24.4505 5.1565 24.408L6.0325 24.2525C6.1425 24.2325 6.2435 24.1775 6.319 24.0945C6.67467 23.7028 6.904 23.215 7.007 22.631C7.261 21.1905 7.422 21.0345 7.007 19.6495C6.872 19.197 5.881 18.756 5.247 16.7515C4.84067 15.4685 4.48033 13.289 4.166 10.213C4.15469 10.1021 4.10711 9.99795 4.03064 9.91678C3.95417 9.83561 3.85307 9.78192 3.743 9.76401L2.769 9.60651C2.619 9.58201 2.4875 9.49151 2.411 9.36001L1.64 8.02801L1.619 7.99451C1.5435 7.89099 1.50193 7.76663 1.5 7.63851C1.5 7.54051 1.5255 7.43935 1.5765 7.33501C1.60383 7.27935 1.64 7.23035 1.685 7.18801L2.6925 6.24151C2.7625 6.17501 2.813 6.09001 2.837 5.99651L2.894 5.77001C2.945 5.56851 3.057 5.38701 3.214 5.25101C3.517 4.99001 3.74067 4.81501 3.885 4.72601C4.065 4.61535 4.43867 4.48268 5.006 4.32801C4.718 3.92501 4.56 3.57235 4.532 3.27001C4.4895 2.81651 4.4535 2.36751 4.637 2.35001C4.76 2.33868 5.07117 2.67668 5.5705 3.36401C5.5315 2.49535 5.61933 2.11168 5.834 2.21301C6.04867 2.31435 6.52033 2.89985 7.249 3.96951L7.96 4.77951C8.30535 5.17294 8.55942 5.63787 8.704 6.14101C9.06333 7.39101 9.405 8.29085 9.729 8.84051C10.3085 9.82151 11.019 11.0295 13.328 10.8505C15.6365 10.672 16.413 10.2045 17.951 9.96251C18.7382 9.84274 19.5314 9.76579 20.327 9.73201C20.603 9.719 20.8796 9.74237 21.1495 9.80151Z" fill="black"/>
</svg>
