<svg width="16" height="20" viewBox="0 0 16 20" fill="none" xmlns="http://www.w3.org/2000/svg">
<path d="M14 1C14.5304 1 15.0391 1.21071 15.4142 1.58579C15.7893 1.96086 16 2.46957 16 3C16 3.81 15.5 4.5 14.83 4.82L13 11.15V16H3V11.15L1.17 4.82C0.5 4.5 0 3.81 0 3C0 2.46957 0.210714 1.96086 0.585786 1.58579C0.960859 1.21071 1.46957 1 2 1C2.53043 1 3.03914 1.21071 3.41421 1.58579C3.78929 1.96086 4 2.46957 4 3C4 3.5 3.82 3.95 3.5 4.3L6.3 7.35L6.83 3.62C6.33 3.26 6 2.67 6 2C6 1.46957 6.21071 0.960859 6.58579 0.585786C6.96086 0.210714 7.46957 0 8 0C8.53043 0 9.03914 0.210714 9.41421 0.585786C9.78929 0.960859 10 1.46957 10 2C10 2.67 9.67 3.26 9.17 3.62L9.7 7.35L12.47 4.29C12.166 3.92893 11.9995 3.47199 12 3C12 2.46957 12.2107 1.96086 12.5858 1.58579C12.9609 1.21071 13.4696 1 14 1ZM1 18H15V20H1V18Z" fill="black"/>
</svg>
