<svg width="16" height="19" viewBox="0 0 16 19" fill="none" xmlns="http://www.w3.org/2000/svg">
<path d="M12 14L14 3L10 7L8 2L6 7L2 3L4 14M12 14L13.447 14.724C13.6131 14.807 13.7528 14.9346 13.8504 15.0925C13.9481 15.2504 13.9999 15.4323 14 15.618V18H2V15.618C2.0001 15.4323 2.05188 15.2504 2.14955 15.0925C2.24722 14.9346 2.38692 14.807 2.553 14.724L4 14M12 14H4" stroke="black" stroke-width="2" stroke-linecap="round" stroke-linejoin="round"/>
<path d="M7 2C7 2.26522 7.10536 2.51957 7.29289 2.70711C7.48043 2.89464 7.73478 3 8 3C8.26522 3 8.51957 2.89464 8.70711 2.70711C8.89464 2.51957 9 2.26522 9 2C9 1.73478 8.89464 1.48043 8.70711 1.29289C8.51957 1.10536 8.26522 1 8 1C7.73478 1 7.48043 1.10536 7.29289 1.29289C7.10536 1.48043 7 1.73478 7 2ZM1 3C1 3.26522 1.10536 3.51957 1.29289 3.70711C1.48043 3.89464 1.73478 4 2 4C2.26522 4 2.51957 3.89464 2.70711 3.70711C2.89464 3.51957 3 3.26522 3 3C3 2.73478 2.89464 2.48043 2.70711 2.29289C2.51957 2.10536 2.26522 2 2 2C1.73478 2 1.48043 2.10536 1.29289 2.29289C1.10536 2.48043 1 2.73478 1 3ZM13 3C13 3.26522 13.1054 3.51957 13.2929 3.70711C13.4804 3.89464 13.7348 4 14 4C14.2652 4 14.5196 3.89464 14.7071 3.70711C14.8946 3.51957 15 3.26522 15 3C15 2.73478 14.8946 2.48043 14.7071 2.29289C14.5196 2.10536 14.2652 2 14 2C13.7348 2 13.4804 2.10536 13.2929 2.29289C13.1054 2.48043 13 2.73478 13 3Z" stroke="black" stroke-width="2" stroke-linecap="round" stroke-linejoin="round"/>
</svg>
